PathFileType	4	(x/y/z)	TRC_MarkerData\Passive\Passive_Pref0003.trc
DataRate	CameraRate	NumFrames	NumMarkers	Units	OrigDataRate	OrigDataStartFrame	OrigNumFrames
240	240	10	50	mm	240	188	300
Frame#	Time	R_AC			L_AC			HEAD			STERN			C7			L_IC			R_IC			L_ASIS			R_ASIS			L_GT			R_GT			L_PSIS			R_PSIS			SACRAL			L_LAT_KNEE			L_MED_KNEE			R_LAT_KNEE			R_MED_KNEE			L_LAT_ANK			L_MED_ANK			R_LAT_ANK			R_MED_ANK			L_THIGH_PROX_POST			L_THIGH_PROX_ANT			L_THIGH_DIST_ANT			L_THIGH_DIST_POST			R_THIGH_PROX_POST			R_THIGH_PROX_ANT			R_THIGH_DIST_ANT			R_THIGH_DIST_POST			L_SHANK_PROX_POST			L_SHANK_PROX_ANT			L_SHANK_DIST_ANT			L_SHANK_DIST_POST			R_SHANK_PROX_POST			R_SHANK_PROX_ANT			R_SHANK_DIST_ANT			R_SHANK_DIST_POST			L_HEEL_LAT			L_HEEL_SUP			L_HEEL_MED			R_HEEL_LAT			R_HEEL_SUP			R_HEEL_MED			L_1ST_MET			L_5TH_MET			L_TOE			R_1ST_MET			R_5TH_MET			R_TOE			
		X1	Y1	Z1	X2	Y2	Z2	X3	Y3	Z3	X4	Y4	Z4	X5	Y5	Z5	X6	Y6	Z6	X7	Y7	Z7	X8	Y8	Z8	X9	Y9	Z9	X10	Y10	Z10	X11	Y11	Z11	X12	Y12	Z12	X13	Y13	Z13	X14	Y14	Z14	X15	Y15	Z15	X16	Y16	Z16	X17	Y17	Z17	X18	Y18	Z18	X19	Y19	Z19	X20	Y20	Z20	X21	Y21	Z21	X22	Y22	Z22	X23	Y23	Z23	X24	Y24	Z24	X25	Y25	Z25	X26	Y26	Z26	X27	Y27	Z27	X28	Y28	Z28	X29	Y29	Z29	X30	Y30	Z30	X31	Y31	Z31	X32	Y32	Z32	X33	Y33	Z33	X34	Y34	Z34	X35	Y35	Z35	X36	Y36	Z36	X37	Y37	Z37	X38	Y38	Z38	X39	Y39	Z39	X40	Y40	Z40	X41	Y41	Z41	X42	Y42	Z42	X43	Y43	Z43	X44	Y44	Z44	X45	Y45	Z45	X46	Y46	Z46	X47	Y47	Z47	X48	Y48	Z48	X49	Y49	Z49	X50	Y50	Z50	

188	0.78177	153.08	1496.1	485.27	147.77	1529.6	94.61	253.47	1814	309.98	249.24	1474.9	289.29	103.09	1557.3	293.19	149.72	1068.8	112.41	163.87	1084.9	454.35	208.45	995.08	140.85	234.23	1021.5	408.45	111.05	917.07	98.968	164.68	949.12	470.09	12.251	1024.9	244.47	26.214	1029	352.91	4.9047	1001.6	301.84	64.445	507.86	118.26	88.43	500.21	251.87	314.49	549.11	424.08	323.84	555.54	297.06	-317.2	265.19	149.98	-314.45	269.05	228.72	282.38	94.705	369.41	312.78	114.28	271.21	70.538	772.5	114.37	134.5	759.27	105.86	125.28	684.39	111.62	61.537	698.3	120.02	207.47	771.06	461.18	273.96	794.13	463.4	290.93	723.95	453.19	226.75	699.96	444.51	26.966	469.54	127.67	66.077	446.93	138.06	27.977	414.44	146.35	-16.873	439.24	134.84	246.16	388.49	415.62	314.88	398.37	428.42	323.22	325.7	415.57	255.89	313.25	403.6	-414.28	263.38	154.78	-401.41	287.37	190.42	-419.28	261.26	222.2	221.07	39.263	337.79	217.2	64.593	301.72	236.42	37.977	271.53	-263.63	97.064	245.65	-280.55	105.06	140.3	-221.72	65.015	221.15	466.53	51.567	294.79	422.69	38.84	400.34	504.82	62.925	349.86
189	0.78595	158.36	1497.2	485.62	152.81	1530.4	94.869	259.09	1814.9	310.52	254.41	1475.9	289.6	108.4	1558.3	293.56	155.26	1069.7	113.12	169.5	1086	454.98	214.21	996.27	141.6	239.8	1022.3	409.24	117.37	917.85	99.566	170.11	949.78	470.68	17.836	1025.5	245.09	31.774	1029.8	353.56	10.505	1002.3	302.49	74.823	508.44	117.88	99.084	500.54	251.44	317.55	548.98	424.36	327.18	555.45	297.26	-308.33	268.17	150.31	-305.35	271.96	229.07	282.61	94.889	369.29	313.09	114.27	271.07	78.506	772.73	114.66	142.65	760.2	106.08	134.17	685.2	111.63	70.194	698.36	120.15	212.01	771.47	461.5	278.81	794.07	463.85	295.04	723.84	453.62	230.78	700.28	444.85	37.08	470.31	127.39	76.107	447.47	137.62	37.823	415.2	145.98	-6.8948	440.3	134.61	248.18	388.81	415.58	316.94	398.27	428.53	324.85	325.54	415.62	257.48	313.54	403.51	-405.41	266.97	155.31	-392.34	290.89	190.92	-410.25	264.82	222.78	221.2	39.496	337.8	217.37	64.809	301.71	236.54	38.146	271.53	-255.59	99.609	245.68	-272.71	107.81	140.38	-213.93	67.312	221.04	466.66	50.972	294.62	422.82	38.675	400.32	504.95	62.283	349.67
190	0.79013	163.62	1498.3	485.96	157.82	1531.2	95.113	264.69	1815.8	311.02	259.55	1477	289.89	113.69	1559.3	293.92	160.74	1070.6	113.81	175.12	1087.1	455.61	219.94	997.52	142.32	245.34	1023.2	410.02	123.65	918.71	100.14	175.5	950.48	471.24	23.394	1026.1	245.7	37.306	1030.7	354.19	16.076	1003.1	303.14	85.222	509.13	117.49	109.73	501.01	251.01	320.48	548.86	424.64	330.37	555.35	297.48	-299.25	270.99	150.6	-296.06	274.71	229.38	282.83	95.073	369.18	313.38	114.27	270.95	86.447	773.06	114.94	150.76	761.23	106.27	143.02	686.1	111.62	78.836	698.53	120.27	216.49	771.91	461.82	283.56	794.05	464.27	299.06	723.77	454.03	234.73	700.65	445.19	47.243	471.15	127.1	86.195	448.13	137.18	47.749	416.05	145.62	3.1501	441.41	134.36	250.09	389.13	415.56	318.88	398.17	428.66	326.38	325.41	415.7	258.98	313.84	403.44	-396.34	270.33	155.79	-383.08	294.19	191.36	-401.03	268.16	223.3	221.33	39.729	337.8	217.54	65.028	301.7	236.66	38.322	271.54	-247.24	102.06	245.7	-264.55	110.43	140.44	-205.82	69.553	220.95	466.78	50.434	294.48	422.95	38.523	400.32	505.07	61.687	349.51
191	0.79431	168.86	1499.5	486.28	162.77	1532.1	95.344	270.29	1816.7	311.49	264.66	1478.1	290.17	118.95	1560.3	294.27	166.17	1071.5	114.47	180.72	1088.2	456.21	225.64	998.83	143.01	250.85	1024.1	410.76	129.87	919.64	100.68	180.86	951.21	471.77	28.928	1026.8	246.31	42.813	1031.6	354.81	21.621	1003.9	303.76	95.635	509.92	117.11	120.36	501.6	250.59	323.28	548.77	424.93	333.43	555.26	297.73	-289.99	273.64	150.85	-286.61	277.32	229.64	283.04	95.257	369.1	313.65	114.29	270.87	94.361	773.48	115.2	158.82	762.34	106.43	151.83	687.11	111.59	87.471	698.81	120.38	220.9	772.39	462.14	288.21	794.07	464.68	303.01	723.72	454.42	238.6	701.04	445.56	57.453	472.08	126.79	96.334	448.89	136.75	57.747	416.98	145.25	13.254	442.57	134.11	251.89	389.45	415.59	320.71	398.1	428.83	327.82	325.29	415.81	260.4	314.14	403.41	-387.07	273.45	156.21	-373.65	297.26	191.76	-391.64	271.26	223.77	221.45	39.962	337.81	217.7	65.252	301.7	236.77	38.506	271.56	-238.6	104.41	245.72	-256.08	112.93	140.5	-197.38	71.722	220.86	466.9	49.951	294.37	423.06	38.38	400.34	505.18	61.134	349.39
192	0.79849	174.07	1500.7	486.6	167.7	1533	95.566	275.87	1817.7	311.93	269.75	1479.2	290.44	124.18	1561.4	294.61	171.56	1072.5	115.12	186.3	1089.3	456.81	231.31	1000.2	143.68	256.34	1025	411.48	136.06	920.63	101.2	186.19	951.98	472.29	34.442	1027.5	246.9	48.296	1032.6	355.4	27.142	1004.8	304.37	106.06	510.8	116.72	130.97	502.31	250.17	325.95	548.69	425.24	336.34	555.17	298	-280.55	276.13	151.07	-276.99	279.75	229.87	283.25	95.438	369.03	313.91	114.33	270.81	102.25	773.97	115.44	166.83	763.52	106.56	160.62	688.2	111.53	96.105	699.2	120.46	225.24	772.91	462.45	292.75	794.13	465.07	306.87	723.7	454.81	242.4	701.48	445.93	67.708	473.09	126.47	106.52	449.75	136.33	67.813	417.98	144.89	23.41	443.77	133.86	253.59	389.77	415.65	322.44	398.04	429.03	329.17	325.2	415.95	261.73	314.44	403.4	-377.63	276.33	156.59	-364.06	300.08	192.1	-382.07	274.11	224.19	221.57	40.195	337.83	217.85	65.48	301.71	236.89	38.698	271.59	-229.68	106.64	245.73	-247.31	115.29	140.54	-188.63	73.801	220.77	467.01	49.519	294.28	423.17	38.242	400.37	505.29	60.617	349.3
193	0.80268	179.25	1502	486.91	172.59	1533.9	95.782	281.43	1818.7	312.33	274.81	1480.4	290.7	129.39	1562.5	294.94	176.91	1073.5	115.74	191.87	1090.5	457.38	236.95	1001.6	144.32	261.81	1025.9	412.18	142.2	921.69	101.69	191.49	952.78	472.78	39.94	1028.3	247.47	53.758	1033.6	355.96	32.641	1005.8	304.95	116.48	511.76	116.34	141.55	503.13	249.77	328.5	548.63	425.57	339.13	555.09	298.3	-270.93	278.43	151.24	-267.22	282.01	230.05	283.46	95.617	368.99	314.15	114.4	270.79	110.12	774.54	115.65	174.82	764.78	106.66	169.38	689.37	111.46	104.75	699.68	120.51	229.51	773.47	462.77	297.16	794.23	465.47	310.66	723.71	455.19	246.11	701.95	446.33	78.005	474.16	126.14	116.74	450.69	135.92	77.94	419.05	144.54	33.613	444.99	133.59	255.18	390.09	415.75	324.07	398.01	429.26	330.44	325.13	416.14	262.98	314.74	403.44	-368.01	278.95	156.91	-354.32	302.66	192.4	-372.34	276.72	224.56	221.68	40.43	337.85	217.99	65.714	301.73	237.01	38.901	271.62	-220.48	108.73	245.71	-238.26	117.49	140.56	-179.59	75.776	220.67	467.12	49.135	294.22	423.27	38.108	400.42	505.39	60.132	349.24
194	0.80686	184.41	1503.3	487.2	177.45	1534.8	95.994	286.98	1819.7	312.71	279.84	1481.6	290.95	134.57	1563.6	295.25	182.23	1074.5	116.34	197.42	1091.7	457.93	242.56	1003.1	144.93	267.25	1026.8	412.84	148.3	922.8	102.16	196.75	953.63	473.25	45.426	1029.1	248.03	59.199	1034.7	356.5	38.122	1006.8	305.51	126.91	512.81	115.97	152.11	504.05	249.39	330.93	548.6	425.91	341.78	555.01	298.63	-261.16	280.54	151.37	-257.3	284.08	230.18	283.65	95.792	368.96	314.39	114.48	270.79	117.97	775.16	115.85	182.76	766.09	106.74	178.11	690.61	111.36	113.4	700.26	120.53	233.7	774.07	463.1	301.43	794.38	465.87	314.36	723.76	455.58	249.75	702.46	446.74	88.34	475.3	125.81	127.01	451.72	135.51	88.123	420.17	144.18	43.856	446.25	133.33	256.67	390.41	415.88	325.59	397.99	429.53	331.63	325.09	416.36	264.15	315.06	403.5	-358.23	281.31	157.19	-344.43	304.99	192.64	-362.45	279.06	224.86	221.79	40.665	337.87	218.13	65.955	301.76	237.13	39.113	271.67	-211.01	110.67	245.67	-228.93	119.53	140.55	-170.25	77.634	220.55	467.23	48.794	294.18	423.37	37.974	400.48	505.5	59.674	349.21
195	0.81104	189.55	1504.7	487.49	182.29	1535.8	96.204	292.51	1820.7	313.05	284.86	1482.8	291.18	139.73	1564.8	295.56	187.52	1075.6	116.92	202.95	1092.9	458.47	248.15	1004.6	145.51	272.68	1027.8	413.47	154.36	923.96	102.61	201.99	954.5	473.7	50.9	1030	248.56	64.621	1035.8	357.01	43.584	1007.8	306.04	137.32	513.93	115.61	162.63	505.07	249.02	333.23	548.58	426.28	344.3	554.94	299	-251.22	282.45	151.46	-247.24	285.96	230.28	283.85	95.963	368.96	314.62	114.59	270.83	125.8	775.84	116.01	190.68	767.45	106.79	186.82	691.92	111.25	122.05	700.92	120.53	237.81	774.7	463.42	305.57	794.56	466.28	317.99	723.83	455.97	253.31	703	447.17	98.703	476.5	125.46	137.3	452.82	135.12	98.359	421.35	143.84	54.136	447.52	133.06	258.06	390.74	416.04	327.01	397.99	429.84	332.73	325.06	416.62	265.25	315.37	403.6	-348.29	283.41	157.41	-334.41	307.05	192.84	-352.41	281.14	225.12	221.89	40.903	337.9	218.27	66.203	301.8	237.25	39.335	271.72	-201.29	112.46	245.61	-219.33	121.4	140.51	-160.62	79.366	220.41	467.34	48.492	294.16	423.46	37.839	400.55	505.6	59.241	349.22
196	0.81522	194.67	1506	487.77	187.12	1536.8	96.414	298.03	1821.8	313.35	289.85	1484.1	291.41	144.85	1566	295.85	192.78	1076.8	117.47	208.47	1094.1	458.99	253.71	1006.1	146.08	278.08	1028.8	414.08	160.39	925.16	103.03	207.18	955.41	474.13	56.364	1030.9	249.07	70.024	1036.9	357.49	49.029	1008.9	306.54	147.73	515.13	115.26	173.12	506.18	248.67	335.42	548.59	426.67	346.71	554.89	299.39	-241.14	284.17	151.51	-237.05	287.65	230.34	284.03	96.131	368.98	314.84	114.72	270.89	133.61	776.57	116.16	198.57	768.86	106.83	195.51	693.3	111.13	130.72	701.65	120.49	241.84	775.37	463.76	309.57	794.78	466.7	321.54	723.93	456.36	256.78	703.58	447.61	109.09	477.75	125.12	147.62	453.99	134.75	108.64	422.58	143.5	64.446	448.81	132.8	259.35	391.07	416.24	328.34	398.01	430.18	333.76	325.06	416.91	266.26	315.7	403.72	-338.2	285.24	157.58	-324.25	308.86	192.99	-342.24	282.95	225.32	221.99	41.142	337.93	218.4	66.458	301.84	237.37	39.566	271.78	-191.3	114.09	245.51	-209.46	123.09	140.44	-150.71	80.961	220.24	467.45	48.227	294.17	423.55	37.703	400.64	505.7	58.829	349.25
197	0.8194	199.78	1507.4	488.04	191.93	1537.8	96.625	303.53	1822.8	313.63	294.82	1485.3	291.64	149.94	1567.1	296.14	198	1078	118.01	213.97	1095.4	459.48	259.25	1007.7	146.62	283.45	1029.8	414.66	166.39	926.4	103.42	212.34	956.35	474.54	61.819	1031.9	249.56	75.408	1038.1	357.95	54.456	1010	307.02	158.11	516.39	114.93	183.57	507.36	248.35	337.49	548.62	427.08	349	554.84	299.82	-230.91	285.68	151.52	-226.72	289.12	230.35	284.22	96.294	369.02	315.06	114.87	270.98	141.41	777.33	116.28	206.43	770.31	106.84	204.19	694.72	111	139.39	702.45	120.42	245.79	776.08	464.09	313.45	795.03	467.13	325	724.05	456.77	260.16	704.19	448.06	119.49	479.05	124.78	157.96	455.23	134.39	118.97	423.84	143.17	74.785	450.11	132.54	260.56	391.41	416.45	329.58	398.05	430.54	334.7	325.09	417.23	267.2	316.03	403.86	-327.96	286.81	157.7	-313.97	310.41	193.1	-331.92	284.48	225.47	222.08	41.384	337.96	218.53	66.722	301.88	237.48	39.807	271.85	-181.08	115.54	245.38	-199.34	124.6	140.33	-140.54	82.413	220.04	467.56	47.993	294.19	423.64	37.565	400.74	505.8	58.434	349.3
